<svg width="21" height="21" viewBox="0 0 21 21" fill="none" xmlns="http://www.w3.org/2000/svg">
<path d="M4.46094 19.9996C4.46094 16.6608 7.16757 13.9541 10.5064 13.9541C13.8452 13.9541 16.5518 16.6608 16.5518 19.9996H4.46094Z" stroke="black" stroke-width="2" stroke-miterlimit="10" stroke-linecap="round"/>
<path d="M10.4936 13.9551C12.4015 13.9551 13.9482 12.4084 13.9482 10.5005C13.9482 8.59257 12.4015 7.0459 10.4936 7.0459C8.58572 7.0459 7.03906 8.59257 7.03906 10.5005C7.03906 12.4084 8.58572 13.9551 10.4936 13.9551Z" stroke="black" stroke-width="2" stroke-miterlimit="10" stroke-linecap="round"/>
<path d="M4.78709 13.5556C3.47609 11.1046 3.85264 7.98856 5.92018 5.92099C8.44891 3.39222 12.5512 3.39222 15.0799 5.92099C17.1354 7.97647 17.5205 11.0683 16.2355 13.5142" stroke="black" stroke-width="2" stroke-miterlimit="10" stroke-linecap="round"/>
<path d="M2.82055 16.0948C1.67536 14.5247 1 12.5919 1 10.5001C1 5.2526 5.25255 1 10.5 1C15.7475 1 20 5.2526 20 10.5001C20 12.5919 19.3246 14.5247 18.1795 16.0948" stroke="black" stroke-width="2" stroke-miterlimit="10" stroke-linecap="round"/>
</svg>
