<svg width="22" height="14" viewBox="0 0 22 14" fill="none" xmlns="http://www.w3.org/2000/svg">
<path d="M7.33301 1H19.6631C20.4829 1.0002 20.9997 1.59312 21 2.14746V11.8555C20.9998 12.4081 20.485 12.9998 19.6631 13H7.33301C7.03961 13 6.76474 12.9176 6.53906 12.7754L1.44629 8.14941C0.851308 7.48461 0.852198 6.5138 1.44531 5.85352L6.54004 1.22559C6.76885 1.08082 7.04391 1 7.33301 1ZM7.33301 4.03809C5.69008 4.03809 4.30785 5.33465 4.30762 6.99805C4.30762 8.66164 5.68994 9.95801 7.33301 9.95801C8.97598 9.9579 10.3584 8.66157 10.3584 6.99805C10.3582 5.33472 8.97585 4.03819 7.33301 4.03809Z" stroke="black" stroke-width="2"/>
</svg>
